<svg xmlns="http://www.w3.org/2000/svg" viewBox="0 0 30 20"><path fill="#de2910" d="M0 0h30v20H0z"/><path fill="#ffde00" d="m5.8 2.2 1 3h3.1l-2.5 1.8 1 3-2.6-1.8-2.5 1.8 1-3-2.6-1.8h3.2z"/><g fill="#ffde00"><path d="m12.2 2.2.5 1.4h1.5l-1.2.9.5 1.4-1.3-.9-1.2.9.5-1.4-1.2-.9h1.5z"/><path d="m15 5.3.5 1.4H17l-1.2.9.5 1.4-1.3-.9-1.2.9.5-1.4-1.2-.9h1.5z"/><path d="m15 9.6.5 1.4H17l-1.2.9.5 1.4-1.3-.9-1.2.9.5-1.4-1.2-.9h1.5z"/><path d="m12.2 12.8.5 1.4h1.5l-1.2.9.5 1.4-1.3-.9-1.2.9.5-1.4-1.2-.9h1.5z"/></g></svg>
