<svg xmlns="http://www.w3.org/2000/svg" viewBox="0 0 30 20"><path fill="#fff" d="M0 0h30v20H0z"/><g transform="translate(15 10)"><path fill="#cd2e3a" d="M0-5a5 5 0 1 1 0 10 2.5 2.5 0 1 0 0-5 2.5 2.5 0 1 1 0-5z"/><path fill="#0047a0" d="M0 5a5 5 0 0 1 0-10 2.5 2.5 0 1 0 0 5 2.5 2.5 0 1 1 0 5z"/></g><g fill="#000"><g transform="translate(6.1 4.2) rotate(-34)"><path d="M-3.3-1.8h6.6v.9h-6.6zM-3.3-.45h6.6v.9h-6.6zM-3.3.9h6.6v.9h-6.6z"/></g><g transform="translate(23.9 15.8) rotate(-34)"><path d="M-3.3-1.8h2.7v.9h-2.7zM.6-1.8h2.7v.9H.6zM-3.3-.45h6.6v.9h-6.6zM-3.3.9h2.7v.9h-2.7zM.6.9h2.7v.9H.6z"/></g><g transform="translate(23.9 4.2) rotate(34)"><path d="M-3.3-1.8h6.6v.9h-6.6zM-3.3-.45h2.7v.9h-2.7zM.6-.45h2.7v.9H.6zM-3.3.9h6.6v.9h-6.6z"/></g><g transform="translate(6.1 15.8) rotate(34)"><path d="M-3.3-1.8h2.7v.9h-2.7zM.6-1.8h2.7v.9H.6zM-3.3-.45h2.7v.9h-2.7zM.6-.45h2.7v.9H.6zM-3.3.9h2.7v.9h-2.7zM.6.9h2.7v.9H.6z"/></g></g></svg>