<svg xmlns="http://www.w3.org/2000/svg" viewBox="0 0 38 20"><path fill="#b22234" d="M0 0h38v20H0z"/><g fill="#fff"><path d="M0 1.54h38v1.54H0zM0 4.62h38v1.54H0zM0 7.69h38v1.54H0zM0 10.77h38v1.54H0zM0 13.85h38v1.54H0zM0 16.92h38v1.54H0z"/></g><path fill="#3c3b6e" d="M0 0h15.2v10.77H0z"/><g fill="#fff"><circle cx="2" cy="1.5" r=".45"/><circle cx="4.8" cy="1.5" r=".45"/><circle cx="7.6" cy="1.5" r=".45"/><circle cx="10.4" cy="1.5" r=".45"/><circle cx="13.2" cy="1.5" r=".45"/><circle cx="3.4" cy="3.1" r=".45"/><circle cx="6.2" cy="3.1" r=".45"/><circle cx="9" cy="3.1" r=".45"/><circle cx="11.8" cy="3.1" r=".45"/><circle cx="2" cy="4.7" r=".45"/><circle cx="4.8" cy="4.7" r=".45"/><circle cx="7.6" cy="4.7" r=".45"/><circle cx="10.4" cy="4.7" r=".45"/><circle cx="13.2" cy="4.7" r=".45"/><circle cx="3.4" cy="6.3" r=".45"/><circle cx="6.2" cy="6.3" r=".45"/><circle cx="9" cy="6.3" r=".45"/><circle cx="11.8" cy="6.3" r=".45"/><circle cx="2" cy="7.9" r=".45"/><circle cx="4.8" cy="7.9" r=".45"/><circle cx="7.6" cy="7.9" r=".45"/><circle cx="10.4" cy="7.9" r=".45"/><circle cx="13.2" cy="7.9" r=".45"/></g></svg>
